<?xml version="1.0" encoding="UTF-8"?>
<svg width="512" height="512" viewBox="0 0 512 512" fill="none" xmlns="http://www.w3.org/2000/svg">
  <!-- Background circle -->
  <circle cx="256" cy="256" r="248" fill="#FFFFFF" stroke="#6200EA" stroke-width="16"/>
  
  <!-- Stylized H for Howdy -->
  <path d="M150 140V372M150 256H250M250 140V372" stroke="#6200EA" stroke-width="32" stroke-linecap="round" stroke-linejoin="round"/>
  
  <!-- Cowboy hat -->
  <path d="M320 120C350 120 370 140 380 160C390 180 390 200 380 220C370 240 350 250 320 250" stroke="#6200EA" stroke-width="16" stroke-linecap="round" stroke-linejoin="round" fill="#FFFFFF"/>
  <path d="M280 160C310 160 350 170 360 190C370 210 370 230 360 250C350 270 310 280 280 280" stroke="#6200EA" stroke-width="16" stroke-linecap="round" stroke-linejoin="round" fill="#FFFFFF"/>
  
  <!-- Boot -->
  <path d="M340 300C360 300 380 310 390 330C400 350 400 370 390 390C380 410 360 420 340 420C320 420 300 410 290 390C280 370 280 350 290 330C300 310 320 300 340 300Z" stroke="#6200EA" stroke-width="16" stroke-linecap="round" stroke-linejoin="round" fill="#FFFFFF"/>
  <path d="M340 340V380" stroke="#6200EA" stroke-width="12" stroke-linecap="round" stroke-linejoin="round"/>
</svg> 